<?xml version="1.0" encoding="UTF-8"?><!DOCTYPE svg PUBLIC "-//W3C//DTD SVG 1.1//EN" "http://www.w3.org/Graphics/SVG/1.1/DTD/svg11.dtd"><symbol xmlns="http://www.w3.org/2000/svg" xmlns:xlink="http://www.w3.org/1999/xlink" xmlns:dc="http://purl.org/dc/elements/1.1/" xmlns:cc="http://creativecommons.org/ns#" xmlns:rdf="http://www.w3.org/1999/02/22-rdf-syntax-ns#" xmlns:svg="http://www.w3.org/2000/svg" xmlns:sodipodi="http://sodipodi.sourceforge.net/DTD/sodipodi-0.dtd" xmlns:inkscape="http://www.inkscape.org/namespaces/inkscape">


	<symbol id="email" viewBox="0 0 510 510" >
			<path d="M459,51H51C22.95,51,0,73.95,0,102v306c0,28.05,22.95,51,51,51h408c28.05,0,51-22.95,51-51V102
			C510,73.95,487.05,51,459,51z M459,153L255,280.5L51,153v-51l204,127.5L459,102V153z"/>

	</symbol>

	<symbol id="#email" viewBox="0 0 491.858 491.858">

		<path d="M474.599,110.021H17.258C7.726,110.021,0,117.747,0,127.279v237.3c0,9.53,7.726,17.258,17.258,17.258h457.341
			c9.531,0,17.259-7.728,17.259-17.259V127.279C491.858,117.747,484.13,110.021,474.599,110.021z M245.929,252.401L12.944,122.964
			h465.97L245.929,252.401z"/>

</symbol>

	<symbol id="logo" viewBox="0 0 147.71 147.71"><defs><style>.cls-1{fill:#44b5c1;}.cls-2{fill:#78eaea;}</style></defs><title>Asset 1</title><g id="Layer_2" data-name="Layer 2"><g id="objects"><path class="cls-1" d="M57,108.26H34.4a34.4,34.4,0,1,1,0-68.8H57l34.4,34.4ZM34.4,45.46a28.4,28.4,0,1,0,0,56.8H54.55l28.4-28.4-28.4-28.4Z"/><path class="cls-1" d="M113.31,108.26H90.68l-34.4-34.4,34.4-34.4h22.63a34.4,34.4,0,1,1,0,68.8Zm-20.15-6h20.15a28.4,28.4,0,1,0,0-56.8H93.17l-28.4,28.4Z"/><path class="cls-2" d="M73.86,91.43,39.46,57V34.4a34.4,34.4,0,1,1,68.8,0V57ZM45.46,54.55l28.4,28.4,28.4-28.4V34.4a28.4,28.4,0,1,0-56.8,0Z"/><path class="cls-2" d="M73.86,147.71a34.39,34.39,0,0,1-34.4-34.4V90.68l34.4-34.4,34.4,34.4v22.63A34.44,34.44,0,0,1,73.86,147.71ZM45.46,93.17v20.15a28.4,28.4,0,0,0,56.8,0V93.17l-28.4-28.4Z"/></g></g>
    </symbol>

    <symbol id="location" viewBox="0 0 512 512">
        <path d="M256,110.062c-52.412,0-95.053,42.641-95.053,95.053s42.641,95.053,95.053,95.053s95.053-42.641,95.053-95.053
			S308.413,110.062,256,110.062z M256,260.146c-30.344,0-55.031-24.687-55.031-55.031s24.687-55.031,55.031-55.031
			s55.031,24.687,55.031,55.031S286.344,260.146,256,260.146z"/>

		<path d="M256,0C142.899,0,50.885,92.015,50.885,205.115v5.67c0,57.2,32.794,123.856,97.474,198.113
			c46.888,53.832,93.121,91.368,95.065,92.94L256,512l12.576-10.161c1.945-1.572,48.178-39.108,95.065-92.94
			c64.679-74.258,97.474-140.913,97.474-198.113v-5.67C461.115,92.015,369.101,0,256,0z M421.093,210.786
			c0,96.665-124.551,213.68-165.093,249.202C215.447,424.455,90.907,307.444,90.907,210.786v-5.67
			c0-91.032,74.061-165.093,165.093-165.093s165.093,74.061,165.093,165.093V210.786z"/>
    </symbol>

    <symbol id="clock2" viewBox="0 0 512 512" >
		<path d="M437.02,74.98C388.667,26.629,324.38,0,256,0S123.333,26.629,74.98,74.98C26.629,123.333,0,187.62,0,256
			s26.629,132.667,74.98,181.02C123.333,485.371,187.62,512,256,512s132.667-26.629,181.02-74.98
			C485.371,388.667,512,324.38,512,256S485.371,123.333,437.02,74.98z M256,472c-119.103,0-216-96.897-216-216S136.897,40,256,40
			s216,96.897,216,216S375.103,472,256,472z"/>
        <polygon points="276,236 276,76 236,76 236,276 388,276 388,236 		"/>
    </symbol>

    <svg  id="phone" viewBox="0 0 512 512" >
<path d="M431.65,272.771l-28.261-28.261c37.622-37.623,37.622-98.84-0.001-136.463
	c-37.624-37.624-98.841-37.623-136.463-0.001l-28.261-28.261c53.206-53.206,139.779-53.206,192.987,0.001
	C484.856,132.991,484.856,219.564,431.65,272.771z M375.857,136.077c-22.397-22.397-58.841-22.398-81.239-0.001l28.261,28.262
	c3.3-3.301,7.69-5.119,12.358-5.119c4.667,0,9.056,1.818,12.357,5.12c3.301,3.3,5.119,7.689,5.119,12.357
	c0,4.668-1.818,9.057-5.119,12.358l28.262,28.261C398.255,194.917,398.254,158.473,375.857,136.077z M445.158,487.072L512,419.998
	L372.935,280.702l-55.77,54.001c-16.066-9.05-46.84-28.686-80.305-62.151c-33.47-33.47-53.329-64.469-62.524-80.688l53.98-54.676
	L92.011,0.066L24.86,66.774c-25.5,25.5-32.108,64.299-16.446,96.547c23.901,49.211,68.002,123.479,142.36,197.838
	s148.627,118.459,197.838,142.36c11.66,5.663,24.174,8.414,36.609,8.414C407.177,511.933,428.879,503.352,445.158,487.072z
	 M431.028,472.942h0.01H431.028z M172.056,137.285l-45.985,46.579l5.55,12.462c0.901,2.025,22.712,50.223,76.978,104.489
	c54.301,54.302,102.092,75.658,104.1,76.54l12.295,5.404l47.467-45.962l83.09,83.227l-38.67,38.804
	c-13.462,13.447-33.877,16.96-50.805,8.739c-46.452-22.562-116.608-64.24-187.038-134.67
	C108.606,262.466,66.928,192.31,44.367,145.859c-8.225-16.936-4.707-37.36,8.709-50.775l38.758-38.502L172.056,137.285z"/>

</svg>

    <svg id="facebook" viewBox="0 0 512 512" >
        <path d="M452,0H60C26.916,0,0,26.916,0,60v392c0,33.084,26.916,60,60,60h392c33.084,0,60-26.916,60-60V60
			C512,26.916,485.084,0,452,0z M472,452c0,11.028-8.972,20-20,20H338V309h61.79L410,247h-72v-43c0-16.975,13.025-30,30-30h41v-62
			h-41c-50.923,0-91.978,41.25-91.978,92.174V247H216v62h60.022v163H60c-11.028,0-20-8.972-20-20V60c0-11.028,8.972-20,20-20h392
			c11.028,0,20,8.972,20,20V452z"/>
    </svg>
    <svg  id="instagram"
	 viewBox="0 0 512 512" style="enable-background:new 0 0 512 512;" xml:space="preserve">
        <path d="M363.273,0H148.728C66.719,0,0,66.719,0,148.728v214.544C0,445.281,66.719,512,148.728,512h214.544
			C445.281,512,512,445.281,512,363.273V148.728C512,66.719,445.281,0,363.273,0z M472,363.272C472,423.225,423.225,472,363.273,472
			H148.728C88.775,472,40,423.225,40,363.273V148.728C40,88.775,88.775,40,148.728,40h214.544C423.225,40,472,88.775,472,148.728
			V363.272z"/>
        <path d="M256,118c-76.094,0-138,61.906-138,138s61.906,138,138,138s138-61.906,138-138S332.094,118,256,118z M256,354
			c-54.037,0-98-43.963-98-98s43.963-98,98-98s98,43.963,98,98S310.037,354,256,354z"/>
        <circle cx="396" cy="116" r="20"/>
    </svg>

    <svg version="1.1" id="student-cap"
	 viewBox="0 0 791.803 791.803" style="enable-background:new 0 0 791.803 791.803;"
	 xml:space="preserve">
        <path d="M395.904,475.016l-236.203-72.7v71.524v49.896c0,56.133,105.787,101.644,236.274,101.644
		c130.48,0,236.285-45.511,236.285-101.644c0-0.442-0.145-0.886-0.154-1.318V402.316L395.904,475.016z"/>
	<path d="M0,318.734l84.383,30.185l7.191-15.401l31-2.635l4.42,4.599l-26.601,6.308l-3.877,11.475
		c-0.007,0-60.087,125.604-51.263,187.05c0,0,37.502,22.37,74.988,0l9.962-168v-13.984l55.8-12.588l-3.941,9.705l-41.604,13.529
		l19.242,6.874l236.203,72.7l236.201-72.7l159.699-57.116l-395.9-152.313L0,318.734z"/>
     </svg>

    <svg id="arrow" viewBox="0 0 512 512" >
        <path d="M448.247,214.059L236.087,0H46.395l257.012,256.47L46.249,512h189.815l212.04-213.084
			c11.364-11.324,17.632-26.396,17.648-42.44S459.53,225.347,448.247,214.059z M419.809,270.642L219.437,472h-76.185l216.843-215.47
			L143.108,40h76.307l200.482,202.277c3.78,3.783,5.859,8.811,5.854,14.159C425.746,261.784,423.657,266.808,419.809,270.642z"/>
    </svg>











</svg>